<?xml version="1.0" encoding="UTF-8" standalone="no"?>
<svg
	xmlns:svg="http://www.w3.org/2000/svg"
	xmlns="http://www.w3.org/2000/svg"
	version="1.1"
	x="0px"
	y="0px"
	width="300px"
	height="300px"
	viewBox="0 0 300 300"
	enable-background="new 0 0 300 300"
	xml:space="preserve">

	<g id="g48" transform="translate(-7.5,-82.189)">
		<path style="fill:#17569e" d="m 118.734,207.659 c 0,0 -3.508,7.012 -17.187,3.856 -13.679,-3.156 -38.229,-17.886 -44.892,-24.55 -6.664,-6.664 -26.654,-21.042 -16.131,-31.565 0,0 -5.963,-1.752 -10.523,-6.312 -4.563,-4.563 -6.315,-14.027 -2.459,-17.887 l 10.878,4.56 c 0,0 -3.859,8.764 0.352,10.167 4.208,1.4 8.063,-2.456 9.819,-4.211 1.752,-1.752 7.715,-8.412 3.504,-12.62 -4.208,-4.208 -5.96,0.352 -5.96,0.352 l -5.26,-5.26 c 0,0 9.116,-5.611 17.535,2.804 8.416,8.416 5.959,16.479 5.959,16.479 z" />
		<path style="fill:#ffffff" d="M 95.12,203.601 C 83.673,200.962 63.121,188.63 57.543,183.053 51.965,177.475 35.236,165.436 44.041,156.632 c 0,0 8.374,-0.188 11.605,-3.414 0,0 -4.725,14.993 10.246,28.203 14.973,13.21 29.228,22.18 29.228,22.18 z" />
		<path style="fill:#17569e" d="m 208.638,219.957 c 0,0 2.984,5.963 14.611,3.279 11.627,-2.685 32.497,-15.21 38.161,-20.874 5.668,-5.664 22.659,-17.887 13.716,-26.83 0,0 5.069,-1.494 8.943,-5.368 3.879,-3.878 5.369,-11.927 2.093,-15.206 l -9.246,3.875 c 0,0 3.282,7.457 -0.3,8.651 -3.574,1.19 -6.854,-2.089 -8.348,-3.583 -1.49,-1.49 -6.555,-7.153 -2.98,-10.729 3.579,-3.583 5.069,0.292 5.069,0.292 l 4.474,-4.474 c 0,0 -7.757,-4.769 -14.91,2.389 -7.154,7.157 -5.065,14.016 -5.065,14.016 z" />
		<g>
			<ellipse cx="168.91" cy="327.61499" rx="61.5" ry="13.889" style="fill:#d5d5d5" />
			<path style="fill:#d5d5d5" d="m 128.568,326.193 c 0,-3.707 -10.654,-6.713 -23.805,-6.713 -13.147,0 -23.805,3.006 -23.805,6.713 0,3.709 10.657,6.711 23.805,6.711 13.152,0 23.805,-3.002 23.805,-6.711 z" />
			<ellipse cx="217.845" cy="318.92001" rx="21.823" ry="6.7129998" style="fill:#d5d5d5" />
		</g>
		<path style="fill:#17569e" d="m 179.981,286.381 c 0,0 1.936,13.416 -0.045,35.242 0,0 9.426,4.461 16.861,9.422 0,0 21.33,-1.984 26.784,-0.992 v -7.441 l -12.896,-7.439 v -27.275 z" />
	 	<path style="fill:#17569e" d="m 198.827,186.497 c 0,17.119 -17.102,30.997 -38.188,30.997 -21.091,0 -38.191,-13.877 -38.191,-30.997 0,-17.123 17.1,-31 38.191,-31 21.087,0 38.188,13.877 38.188,31 z" />
		<path style="fill:#ffffff" d="m 180.712,176.756 c -0.73,4.249 -6.848,6.746 -13.668,5.574 -6.812,-1.172 -11.75,-5.57 -11.017,-9.819 0.726,-4.249 6.847,-6.75 13.663,-5.578 6.818,1.172 11.751,5.567 11.022,9.823 z" />
		<path style="fill:#17569e" d="m 227.921,198.645 c 0,0 0.662,50.925 -9.92,87.295 0,0 -42.32,15.209 -99.851,-1.98 0,0 -10.583,-6.616 -14.551,-6.616 0,0 -4.631,-86.627 -12.563,-99.194 0,-0.001 68.113,-23.81 136.885,20.495 z" />
		<g>
			<path style="fill:#ffffff" d="m 214.646,258.468 c -0.427,5.422 -4.758,10.531 -9.812,11.221 -19.294,2.475 -38.828,2.477 -58.129,0.037 -6.428,-0.865 -11.979,-6.922 -12.316,-13.154 -0.786,-13.59 -1.568,-27.006 -2.354,-40.231 -0.4,-7.146 5.185,-13.885 12.383,-14.349 21.439,-1.101 43.189,1.292 64.598,5.735 5.559,1.224 9.534,7.315 9.029,13.398 -1.13,12.203 -2.265,24.662 -3.399,37.343 z" />
			<path style="fill:#ec7929" d="m 212.50506,219.95984 q -0.29166,1.45833 -0.91145,2.1875 -0.0365,0 -1.85938,1.60417 -2.07812,1.89583 -6.34375,5.6875 -7.29167,6.41666 -21.98437,19.10416 -3.86459,3.09896 -11.5573,9.33334 -10.28124,8.3125 -12.57812,8.3125 -0.61979,0 -1.67708,-0.14584 -1.27604,-0.18229 -3.90104,-2.40625 -2.58855,-2.26041 -3.02605,-3.5 -0.47395,-1.45833 0.40105,-9.44271 0.76562,-6.8177 1.42187,-10.17187 0.0729,-0.4375 0.25521,-1.16667 0.72917,-2.91666 1.05729,-3.46354 0.32813,-0.54687 2.69792,-2.80729 1.93229,-1.85937 2.15104,-2.04167 1.3125,-1.1302 2.47917,-1.53125 1.96875,-0.65625 3.97395,-0.65625 1.34896,0 2.1875,0.76563 0.875,0.76562 0.54688,2.36979 -0.40104,1.96875 -0.47396,4.8125 0,2.36979 -0.0365,4.73958 -0.0729,1.23959 0.29167,3.28125 0.69271,0.98438 1.85937,0.98438 0.6198,0 3.24479,-2.1875 4.5573,-3.75521 18.22917,-14.91146 4.22917,-3.5 12.83333,-10.39062 1.96875,-1.53125 6.70834,-4.77605 1.56771,-1.05729 3.13541,-1.05729 1.64063,0 1.89584,0.4375 0.29166,0.4375 -0.0729,2.1875 z" />
			<path style="fill:#d5d5d5" d="m 143.43,208.389 c 0.172,-0.019 0.348,-0.03 0.524,-0.037 21.439,-0.603 43.189,1.729 64.602,5.555 1.098,0.195 1.864,0.955 2.317,1.554 0.947,1.254 1.415,2.938 1.288,4.653 -1.139,12.604 -2.272,25.429 -3.41,38.444 0,0.016 0,0.027 0,0.039 -0.004,0.01 -0.004,0.025 -0.004,0.037 -0.18,2.32 -1.958,4.492 -3.897,4.701 -19.294,2.006 -38.827,2 -58.133,0.012 -3.32,-0.355 -6.255,-3.369 -6.42,-6.51 -0.79,-13.982 -1.576,-27.811 -2.362,-41.478 -0.093,-1.786 0.431,-3.474 1.49,-4.77 1.003,-1.227 2.426,-2.021 4.005,-2.2 m -0.003,-6.301 c -6.712,1.015 -11.773,7.427 -11.392,14.252 0.786,13.226 1.568,26.642 2.354,40.231 0.337,6.232 5.889,12.289 12.316,13.154 19.301,2.439 38.835,2.438 58.129,-0.037 0.008,0 0.012,-0.004 0.019,-0.004 5.042,-0.697 9.366,-5.799 9.793,-11.217 1.134,-12.682 2.269,-25.14 3.399,-37.344 0.505,-6.083 -3.471,-12.174 -9.029,-13.398 -21.409,-4.443 -43.159,-6.835 -64.598,-5.735 -0.336,0.02 -0.666,0.05 -0.991,0.098 z" />
		</g>
		<path style="fill:#ffffff" d="m 100.129,179.8 c 0,0 22.319,-1.486 22.319,78.86 0,0 19.343,-80.347 -22.319,-78.86 z" />
		<path style="fill:#ffffff" d="m 115.504,188.23 c 0,0 78.362,-1.98 99.689,13.889 0,0 -46.622,-12.896 -97.706,-6.454 z" />
		<path style="fill:#ffffff" d="m 130.878,170.126 h 6.697 c 0,0 3.025,-8.075 13.084,-11.526 0,0 -10.231,1.981 -19.781,11.526 z" />
		<path style="fill:#17569e" d="m 118.978,278.498 c 0,0 0,23.311 -2.976,43.151 0,0 15.869,4.961 19.343,10.912 0,0 28.267,-2.977 32.733,-1.984 v -9.422 l -13.39,-5.951 0.992,-28.271 z" />
		<path style="fill:#ffffff" d="m 133.689,299.828 1.322,23.805 c 0,0 15.543,-1.65 21.821,-1.65 0,0 -12.563,-2.98 -18.512,-2.98 0,-10e-4 -2.317,-15.54 -4.631,-19.175 z" />
		<path style="fill:#ffffff" d="m 198.146,308.152 0.329,15.211 c 0,0 13.889,-0.992 18.849,-0.33 0,0 -6.117,-2.148 -16.041,-2.152 z" />
	</g>
</svg>